<?xml version="1.0" standalone="no"?>
<!DOCTYPE svg PUBLIC "-//W3C//DTD SVG 20010904//EN"
 "http://www.w3.org/TR/2001/REC-SVG-20010904/DTD/svg10.dtd">
<svg version="1.0" xmlns="http://www.w3.org/2000/svg"
 width="512.000000pt" height="512.000000pt" viewBox="0 0 512.000000 512.000000"
 preserveAspectRatio="xMidYMid meet">
<metadata>
Created by potrace 1.11, written by Peter Selinger 2001-2013
</metadata>
<g transform="translate(0.000000,512.000000) scale(0.100000,-0.100000)"
fill="#000000" stroke="none">
<path d="M1184 3763 c-19 -41 -34 -76 -34 -78 0 -2 -13 -32 -29 -67 -16 -35
-85 -191 -154 -348 -152 -346 -673 -1533 -692 -1575 -8 -16 -72 -163 -143
-325 l-130 -295 384 -3 c378 -2 384 -2 431 20 70 33 142 110 185 199 115 237
179 381 448 1007 166 386 209 477 214 457 4 -14 11 -23 16 -20 5 3 7 0 5 -8
-7 -15 29 -100 38 -91 3 3 3 -4 0 -17 -5 -17 -3 -20 7 -14 8 5 11 4 7 -2 -8
-13 16 -76 25 -67 3 3 6 -1 5 -8 -1 -34 4 -49 15 -42 6 4 8 3 5 -4 -9 -14 3
-43 14 -36 5 3 6 -2 3 -10 -3 -8 6 -39 20 -69 14 -29 26 -59 26 -65 0 -7 5
-12 12 -12 6 0 9 -3 6 -6 -10 -9 48 -139 60 -137 6 2 9 -4 6 -12 -8 -19 15
-77 27 -69 5 3 6 -1 3 -9 -2 -7 5 -36 17 -63 12 -27 22 -52 21 -56 -1 -5 2 -8
8 -8 6 0 9 -3 8 -7 -2 -10 8 -33 39 -99 34 -73 67 -102 173 -156 44 -23 52
-23 415 -26 l371 -3 153 358 c85 197 171 396 191 443 21 47 59 136 85 197 42
100 65 131 65 87 0 -8 5 -14 10 -14 6 0 10 -6 10 -14 0 -20 42 -120 55 -128 5
-4 7 -8 3 -8 -4 0 -2 -13 3 -30 6 -17 16 -27 22 -23 6 3 7 1 3 -5 -9 -15 105
-283 117 -275 6 4 7 1 2 -6 -4 -7 -2 -25 5 -39 14 -29 15 -33 56 -132 14 -36
32 -78 40 -95 7 -16 26 -61 42 -100 73 -177 86 -204 95 -198 6 4 7 1 2 -6 -4
-7 -2 -24 4 -37 6 -13 16 -36 22 -51 6 -16 17 -41 25 -56 8 -16 14 -35 14 -43
0 -8 4 -14 8 -14 5 0 9 -6 9 -12 0 -7 12 -39 26 -71 15 -32 27 -63 27 -69 0
-6 7 -5 18 3 15 13 16 12 4 -3 -14 -17 -6 -43 22 -75 6 -7 25 -30 41 -52 17
-22 36 -40 43 -41 6 0 12 -5 12 -11 0 -5 19 -19 43 -29 38 -17 74 -19 319 -22
163 -2 274 1 271 6 -4 5 0 5 8 1 7 -5 62 -10 120 -10 111 -2 116 1 89 40 -4 6
-10 23 -14 38 -4 17 -11 25 -18 21 -6 -4 -8 -3 -5 3 7 11 -13 74 -26 84 -5 3
-10 12 -11 20 -3 15 -13 43 -26 74 -5 11 -21 49 -36 85 -29 72 -58 139 -80
184 -8 16 -14 32 -14 36 0 4 -11 33 -25 64 -14 31 -26 59 -27 64 -1 4 -12 28
-25 53 -13 26 -23 51 -23 55 0 7 -45 118 -89 219 -38 85 -50 114 -61 143 -7
17 -17 32 -22 32 -5 0 -7 4 -4 9 9 14 -15 72 -27 64 -5 -3 -7 -1 -4 5 8 12 -2
44 -12 38 -3 -2 -7 6 -7 19 -2 22 -7 36 -54 140 -25 54 -56 131 -74 183 -6 17
-14 32 -18 32 -5 0 -8 6 -8 13 0 8 -23 67 -50 133 -64 150 -65 152 -83 194 -9
19 -23 54 -32 77 -10 24 -21 41 -25 38 -5 -3 -6 3 -3 14 3 10 0 22 -6 25 -6 4
-11 16 -11 26 0 10 -6 25 -12 32 -7 7 -15 22 -16 33 -2 11 -8 24 -13 30 -5 5
-9 15 -9 21 0 7 -14 43 -32 81 -18 37 -33 73 -34 79 -7 40 -70 147 -110 187
-82 82 -68 79 -512 82 -381 2 -393 2 -403 -17 -9 -17 -127 -302 -381 -918 -33
-80 -64 -157 -70 -172 -7 -21 -12 -25 -22 -16 -7 7 -13 17 -13 23 0 9 -89 226
-148 360 -48 109 -115 273 -115 282 0 6 -7 16 -15 23 -8 6 -13 15 -12 19 5 14
-37 100 -46 94 -6 -4 -7 -1 -3 6 12 19 -74 208 -112 247 -65 67 -65 67 -495
69 l-388 2 -35 -74z m951 -82 c-9 -8 -36 -10 -30 -2 2 4 11 8 20 8 8 0 13 -3
10 -6z m-35 -55 c0 -2 -8 -10 -17 -17 -16 -13 -17 -12 -4 4 13 16 21 21 21 13z
m65 -34 c-3 -3 -11 0 -18 7 -9 10 -8 11 6 5 10 -3 15 -9 12 -12z m296 -719
c13 -16 12 -17 -3 -4 -10 7 -18 15 -18 17 0 8 8 3 21 -13z m1873 -91 c3 -5 -1
-9 -9 -9 -8 0 -12 4 -9 9 3 4 7 8 9 8 2 0 6 -4 9 -8z m130 -228 c3 -8 2 -12
-4 -9 -6 3 -10 10 -10 16 0 14 7 11 14 -7z m-139 -63 c3 -5 2 -12 -3 -15 -5
-3 -9 1 -9 9 0 17 3 19 12 6z m-475 -185 c0 -2 -7 -7 -16 -10 -8 -3 -12 -2 -9
4 6 10 25 14 25 6z m255 -55 c3 -5 2 -12 -3 -15 -5 -3 -9 1 -9 9 0 17 3 19 12
6z m385 -15 c0 -2 -8 -10 -17 -17 -16 -13 -17 -12 -4 4 13 16 21 21 21 13z
m-386 -642 c3 -8 2 -12 -4 -9 -6 3 -10 10 -10 16 0 14 7 11 14 -7z m-54 -28
c0 -2 -7 -7 -16 -10 -8 -3 -12 -2 -9 4 6 10 25 14 25 6z m690 -122 c0 -8 -19
-13 -24 -6 -3 5 1 9 9 9 8 0 15 -2 15 -3z m-364 -326 c3 -4 -1 -5 -10 -4 -8 1
-18 5 -22 8 -3 4 1 5 10 4 8 -1 18 -5 22 -8z"/>
</g>
</svg>
