<svg width="17px" height="17px" viewBox="0 0 17 17" version="1.1" xmlns="http://www.w3.org/2000/svg" xmlns:xlink="http://www.w3.org/1999/xlink">
    <g stroke-width="1" fill-rule="evenodd">
        <g transform="translate(-1014.000000, -883.000000)">
            <g transform="translate(873.601562, 599.000000)">
                <g transform="translate(51.273438, 283.311719)">
                    <path d="M105.026842,1.60160107 L90.9000855,1.60160107 C90.4157547,1.60160107 90.0236143,1.99374142 90.0236143,2.47763114 L90.0236143,16.6048291 C90.0236143,17.0887189 90.4157547,17.4813003 90.9000855,17.4813003 L98.5055792,17.4813003 L98.5055792,11.3318868 L96.4359251,11.3318868 L96.4359251,8.9349344 L98.5055792,8.9349344 L98.5055792,7.16787676 C98.5055792,5.11674894 99.7583111,3.99987676 101.588005,3.99987676 C102.464035,3.99987676 103.217439,4.06515996 103.437108,4.09427275 L103.437108,6.23803214 L102.168055,6.23847325 C101.172928,6.23847325 100.980166,6.7113354 100.980166,7.40474894 L100.980166,8.9349344 L103.35374,8.9349344 L103.044527,11.3318868 L100.980166,11.3318868 L100.980166,17.4813003 L105.026842,17.4813003 C105.510732,17.4813003 105.903314,17.0887189 105.903314,16.6048291 L105.903314,2.47763114 C105.903314,1.99374142 105.510732,1.60160107 105.026842,1.60160107"></path>
                </g>
            </g>
        </g>
    </g>
</svg>