<svg width="17px" height="17px" viewBox="0 0 17 17" version="1.1" xmlns="http://www.w3.org/2000/svg" xmlns:xlink="http://www.w3.org/1999/xlink">
    <g stroke-width="1" fill-rule="evenodd">
        <g transform="translate(-971.000000, -883.000000)">
            <g transform="translate(873.601562, 599.000000)">
                <g transform="translate(51.273438, 283.311719)">
                    <path d="M60.4080629,15.1328692 L58.0547797,15.1328692 L58.0547797,11.4478968 C58.0547797,10.5692201 58.0380178,9.43867375 56.8311606,9.43867375 C55.604895,9.43867375 55.4178674,10.3958667 55.4178674,11.384378 L55.4178674,15.1328692 L53.0654664,15.1328692 L53.0654664,7.55472387 L55.3234714,7.55472387 L55.3234714,8.59043315 L55.3556719,8.59043315 C55.6697371,7.99406222 56.4385792,7.366373 57.5845641,7.366373 C59.9674012,7.366373 60.4080629,8.9353755 60.4080629,10.976358 L60.4080629,15.1328692 Z M50.4100278,6.5190146 C49.6530955,6.5190146 49.0434915,5.90676397 49.0434915,5.15291936 C49.0434915,4.39995696 49.6530955,3.78770633 50.4100278,3.78770633 C51.1634313,3.78770633 51.7752408,4.39995696 51.7752408,5.15291936 C51.7752408,5.90676397 51.1634313,6.5190146 50.4100278,6.5190146 Z M49.230519,15.1328692 L51.5882133,15.1328692 L51.5882133,7.55472387 L49.230519,7.55472387 L49.230519,15.1328692 Z M61.5809551,1.60160107 L48.0483636,1.60160107 C47.4025892,1.60160107 46.8772358,2.11416247 46.8772358,2.74582162 L46.8772358,16.3357565 C46.8772358,16.9678567 47.4025892,17.4813003 48.0483636,17.4813003 L61.5809551,17.4813003 C62.228494,17.4813003 62.7573762,16.9678567 62.7573762,16.3357565 L62.7573762,2.74582162 C62.7573762,2.11416247 62.228494,1.60160107 61.5809551,1.60160107 Z"></path>
                </g>
            </g>
        </g>
    </g>
</svg>