<svg width="20px" height="17px" viewBox="0 0 20 17" version="1.1" xmlns="http://www.w3.org/2000/svg" xmlns:xlink="http://www.w3.org/1999/xlink">
    <g stroke-width="1" fill-rule="evenodd">
        <g transform="translate(-925.000000, -883.000000)">
            <g transform="translate(873.601562, 599.000000)">
                <g transform="translate(51.273438, 283.311719)">
                    <path d="M19.6109977,3.48174183 C18.891833,3.80034536 18.1194772,4.01582338 17.3085851,4.11297846 C18.136303,3.61689051 18.7718817,2.83096562 19.0709457,1.8946946 C18.2969616,2.35441724 17.4388489,2.68821821 16.525374,2.8678737 C15.7942685,2.08900476 14.7527009,1.60160107 13.5993236,1.60160107 C11.3853818,1.60160107 9.59099808,3.39707036 9.59099808,5.61046933 C9.59099808,5.92473073 9.62627786,6.23030788 9.69412358,6.52394418 C6.36262705,6.35677231 3.40889553,4.76049807 1.43159969,2.33596321 C1.0869434,2.92757794 0.888833878,3.61634775 0.888833878,4.35125265 C0.888833878,5.74181865 1.59660049,6.96901214 2.67236232,7.68763407 C2.01507293,7.66700897 1.39686267,7.48681072 0.856810696,7.18611847 C0.85626793,7.20294421 0.85626793,7.21976995 0.85626793,7.23659569 C0.85626793,9.17915451 2.23814968,10.7987677 4.07215534,11.1673057 C3.73564054,11.2590331 3.38121447,11.307882 3.01593308,11.307882 C2.75757656,11.307882 2.50627599,11.2829148 2.26148861,11.2362369 C2.77168847,12.8287118 4.25235359,13.9875168 6.00657268,14.0200828 C4.63446072,15.0953018 2.90575162,15.7363082 1.02778193,15.7363082 C0.704293504,15.7363082 0.385147209,15.7173114 0.0714285714,15.6804034 C1.84573,16.8174977 3.95274687,17.4813003 6.21662305,17.4813003 C13.5900966,17.4813003 17.6223037,11.3730139 17.6223037,6.07507686 C17.6223037,5.9013918 17.6185044,5.72879227 17.6103629,5.55673551 C18.3941167,4.9917163 19.0736595,4.28503522 19.6109977,3.48174183"></path>
                </g>
            </g>
        </g>
    </g>
</svg>