<svg xmlns="http://www.w3.org/2000/svg" width="64" height="64" viewBox="0 0 13.4339 13.3774"><path fill="#53bff9" d="M6.5 11.1582c-.3482-.3976-2.108-2.3857-2.108-3.6742 0-1.427 1.1036-2.5878 2.4606-2.5878S9.3133 6.057 9.3133 7.4847c0 1.2852-1.7555 3.2665-2.1074 3.6728-.3578.3983-.3578.3983-.706.0008z"></path><path fill="#da35cc" fill-opacity=".7787" d="M6.5012 8.139c-.3482-.3976-2.108-2.3857-2.108-3.6742 0-1.4271 1.1036-2.5878 2.4606-2.5878s2.4607 1.1607 2.4607 2.5885c0 1.2852-1.7554 3.2665-2.1074 3.6728-.3577.3983-.3577.3983-.7059.0008z"></path></svg>